<?xml version="1.0" encoding="UTF-8"?>
<svg width="18px" height="18px" viewBox="0 0 18 18" version="1.1" xmlns="http://www.w3.org/2000/svg" xmlns:xlink="http://www.w3.org/1999/xlink">
    <!-- Generator: Sketch 51.3 (57544) - http://www.bohemiancoding.com/sketch -->
    <title>facebook-icon c copy 2</title>
    <desc>Created with Sketch.</desc>
    <defs></defs>
    <g id="Campaign-Trellis-Brands" stroke="none" stroke-width="1" fill="none" fill-rule="evenodd">
        <g id="Talent-Profile-Pop-Up-3-Copy-6" transform="translate(-83.000000, -322.000000)" fill="#3B5998" fill-rule="nonzero">
            <g id="facebook-icon-c-copy-2" transform="translate(82.656338, 322.212529)">
                <g id="Layer_1">
                    <path d="M16.6023529,0.455294118 L1.39764706,0.455294118 C0.877764706,0.455294118 0.454235294,0.876705882 0.454235294,1.39976471 L0.454235294,16.6023529 C0.454235294,17.1232941 0.876705882,17.5457647 1.39764706,17.5457647 L9.58235294,17.5457647 L9.58235294,10.9281176 L7.35564706,10.9281176 L7.35564706,8.34882353 L9.58235294,8.34882353 L9.58235294,6.44611765 C9.58235294,4.23952941 10.9302353,3.03670588 12.9007059,3.03670588 C13.8441176,3.03670588 14.6551765,3.10552941 14.8902353,3.13941176 L14.8902353,5.44552941 L13.5254118,5.44552941 C12.4538824,5.44552941 12.2463529,5.95376471 12.2463529,6.70235294 L12.2463529,8.34988235 L14.8012941,8.34988235 L14.4688235,10.9291765 L12.2463529,10.9291765 L12.2463529,17.5468235 L16.6023529,17.5468235 C17.1222353,17.5468235 17.5457647,17.1254118 17.5457647,16.6034118 L17.5457647,1.39870588 C17.5457647,0.876705882 17.1222353,0.455294118 16.6023529,0.455294118 Z" id="Shape"></path>
                </g>
            </g>
        </g>
    </g>
</svg>