<?xml version="1.0" encoding="UTF-8"?>
<svg width="18px" height="19px" viewBox="0 0 18 19" version="1.1" xmlns="http://www.w3.org/2000/svg" xmlns:xlink="http://www.w3.org/1999/xlink">
    <!-- Generator: Sketch 51.3 (57544) - http://www.bohemiancoding.com/sketch -->
    <title>New-Instagram-Logo Copy 2</title>
    <desc>Created with Sketch.</desc>
    <defs>
        <linearGradient x1="-3.80782886%" y1="100%" x2="102.001934%" y2="-5.27277595%" id="linearGradient-1">
            <stop stop-color="#8A3AB9" offset="0%"></stop>
            <stop stop-color="#CD486B" offset="100%"></stop>
        </linearGradient>
    </defs>
    <g id="Campaign-Trellis-Brands" stroke="none" stroke-width="1" fill="none" fill-rule="evenodd">
        <g id="Talent-Profile-Pop-Up-3-Copy-6" transform="translate(-202.000000, -322.000000)" fill="url(#linearGradient-1)" fill-rule="nonzero">
            <g id="New-Instagram-Logo-Copy-2" transform="translate(202.000000, 322.212529)">
                <g id="Layer_1">
                    <g id="Group">
                        <path d="M9,1.62171429 C11.4025714,1.62171429 11.6871429,1.63114286 12.636,1.67485714 C13.5128571,1.71514286 13.9902857,1.86171429 14.3082857,1.98428571 C14.7265714,2.14714286 15.0282857,2.34257143 15.3428571,2.65714286 C15.6574286,2.97257143 15.852,3.27257143 16.0157143,3.69257143 C16.1382857,4.00971429 16.2848571,4.48628571 16.3251429,5.36314286 C16.3688571,6.312 16.3774286,6.59657143 16.3774286,9 C16.3774286,11.4034286 16.3688571,11.688 16.3251429,12.6368571 C16.2848571,13.5137143 16.1374286,13.9902857 16.0157143,14.3074286 C15.852,14.7274286 15.6574286,15.0274286 15.3428571,15.342 C15.0282857,15.6574286 14.7265714,15.8528571 14.3082857,16.0157143 C13.9902857,16.1391429 13.5128571,16.2848571 12.636,16.3251429 C11.6888571,16.3688571 11.4034286,16.3782857 9,16.3782857 C6.59657143,16.3782857 6.312,16.3688571 5.36314286,16.3251429 C4.48542857,16.2848571 4.00885714,16.1382857 3.69171429,16.0157143 C3.27171429,15.8528571 2.97171429,15.6574286 2.65714286,15.342 C2.34171429,15.0274286 2.14714286,14.7274286 1.98342857,14.3074286 C1.86085714,13.9902857 1.71428571,13.5145714 1.674,12.6368571 C1.63114286,11.688 1.62171429,11.4034286 1.62171429,9 C1.62171429,6.59657143 1.63114286,6.312 1.674,5.36314286 C1.71428571,4.48542857 1.86085714,4.00971429 1.98428571,3.69257143 C2.14714286,3.27171429 2.34257143,2.97257143 2.65714286,2.65714286 C2.97257143,2.34257143 3.27171429,2.14714286 3.69257143,1.98428571 C4.00971429,1.86085714 4.48542857,1.71428571 5.36314286,1.674 C6.312,1.63028571 6.59742857,1.62171429 9,1.62171429 L9,1.62171429 Z M9,0 C6.55542857,0 6.24942857,0.0102857143 5.28942857,0.054 C4.332,0.0977142857 3.67714286,0.250285714 3.10457143,0.472285714 C2.51314286,0.702857143 2.01085714,1.01057143 1.51114286,1.51028571 C1.01057143,2.01085714 0.702857143,2.51314286 0.473142857,3.10457143 C0.250285714,3.67714286 0.0977142857,4.33114286 0.054,5.28942857 C0.0102857143,6.24942857 0,6.55542857 0,9 C0,11.4445714 0.0102857143,11.7505714 0.054,12.7105714 C0.0977142857,13.668 0.250285714,14.3228571 0.472285714,14.8954286 C0.702857143,15.4868571 1.00971429,15.9891429 1.51028571,16.4888571 C2.01,16.9894286 2.51228571,17.2971429 3.10371429,17.5268571 C3.67628571,17.7497143 4.33114286,17.9022857 5.28857143,17.9451429 C6.24942857,17.9897143 6.55542857,18 9,18 C11.4445714,18 11.7505714,17.9897143 12.7097143,17.946 C13.6688571,17.9022857 14.322,17.7497143 14.8945714,17.5277143 C15.4868571,17.298 15.9891429,16.9902857 16.4897143,16.4897143 C16.9902857,15.99 17.2962857,15.4877143 17.5277143,14.8962857 C17.7505714,14.3237143 17.9031429,13.6688571 17.946,12.7114286 C17.9897143,11.7505714 18,11.4445714 18,9 C18,6.55542857 17.9897143,6.24942857 17.9468571,5.28942857 C17.9031429,4.33114286 17.7505714,3.67714286 17.5285714,3.10457143 C17.2971429,2.51314286 16.9911429,2.01085714 16.4905714,1.51028571 C15.99,1.01057143 15.4877143,0.702857143 14.8954286,0.472285714 C14.3228571,0.250285714 13.6697143,0.0977142857 12.7105714,0.0548571429 C11.7505714,0.0102857143 11.4445714,0 9,0 L9,0 Z" id="Shape"></path>
                        <path d="M9,4.37828571 C6.44742857,4.37828571 4.37828571,6.44742857 4.37828571,9 C4.37828571,11.5525714 6.44742857,13.6217143 9,13.6217143 C11.5534286,13.6217143 13.6225714,11.5525714 13.6225714,9 C13.6225714,6.44742857 11.5534286,4.37828571 9,4.37828571 Z M9,12 C7.34314286,12 6,10.6568571 6,9 C6,7.34228571 7.34314286,6 9,6 C10.6577143,6 12,7.34228571 12,9 C12,10.6568571 10.6577143,12 9,12 Z" id="Shape"></path>
                        <circle id="Oval" cx="13.8042857" cy="4.19571429" r="1.08"></circle>
                    </g>
                </g>
            </g>
        </g>
    </g>
</svg>