<?xml version="1.0" encoding="UTF-8"?>
<svg width="25px" height="17px" viewBox="0 0 25 17" version="1.1" xmlns="http://www.w3.org/2000/svg" xmlns:xlink="http://www.w3.org/1999/xlink">
    <!-- Generator: Sketch 51.3 (57544) - http://www.bohemiancoding.com/sketch -->
    <title>youtube-icon copy</title>
    <desc>Created with Sketch.</desc>
    <defs>
        <linearGradient x1="101.375228%" y1="-5.62278237%" x2="-3.53014282%" y2="102.259281%" id="linearGradient-1">
            <stop stop-color="#F5515F" offset="0%"></stop>
            <stop stop-color="#9F041B" offset="100%"></stop>
        </linearGradient>
    </defs>
    <g id="Campaign-Trellis-Brands" stroke="none" stroke-width="1" fill="none" fill-rule="evenodd">
        <g id="Talent-Profile-Pop-Up-3-Copy-6" transform="translate(-314.000000, -323.000000)">
            <g id="youtube-icon-copy" transform="translate(313.740206, 322.212529)">
                <g id="youtube-icon" transform="translate(0.581027, 0.783169)">
                    <g id="Layer_1" fill-rule="nonzero">
                        <g id="Group">
                            <polyline id="Shape" fill="#FFFFFF" points="9.58735632 11.6674286 16.0793103 8.32571429 9.58735632 4.95771429 9.58735632 11.6674286"></polyline>
                            <polyline id="Shape" fill="#E8E0E0" points="15.2793103 8.73828571 15.2793103 8.73714286 16.0793103 8.32571429 15.2793103 8.73828571"></polyline>
                            <polyline id="Shape" fill="#E8E0E0" points="15.2793103 8.73714286 9.58735632 4.95771429 16.0793103 8.32571429 15.2793103 8.73714286"></polyline>
                            <path d="M23.8402299,3.79657143 C23.8402299,3.79657143 23.6045977,2.14971429 22.8850575,1.424 C21.9712644,0.473142857 20.9471264,0.468571429 20.4781609,0.411428571 C17.116092,0.171428571 12.0735632,0.171428571 12.0735632,0.171428571 L12.062069,0.171428571 C12.062069,0.171428571 7.02068966,0.171428571 3.65862069,0.411428571 C3.18965517,0.468571429 2.16666667,0.473142857 1.25057471,1.424 C0.531034483,2.14971429 0.297701149,3.79657143 0.297701149,3.79657143 C0.297701149,3.79657143 0.0574712644,5.728 0.0574712644,7.66285714 L0.0574712644,9.47314286 C0.0574712644,11.4057143 0.297701149,13.3394286 0.297701149,13.3394286 C0.297701149,13.3394286 0.531034483,14.984 1.25057471,15.7097143 C2.16666667,16.6605714 3.36666667,16.632 3.90114943,16.7325714 C5.82298851,16.9154286 12.0666667,16.9714286 12.0666667,16.9714286 C12.0666667,16.9714286 17.116092,16.9622857 20.4770115,16.7234286 C20.945977,16.6674286 21.9701149,16.6605714 22.883908,15.7097143 C23.6034483,14.984 23.8390805,13.3394286 23.8390805,13.3394286 C23.8390805,13.3394286 24.0793103,11.4068571 24.0793103,9.47314286 L24.0793103,7.66285714 C24.0804598,5.728 23.8402299,3.79657143 23.8402299,3.79657143 L23.8402299,3.79657143 Z M9.58850575,11.6674286 L9.58735632,4.95771429 L16.0781609,8.32571429 L9.58850575,11.6674286 Z" id="Shape" fill="url(#linearGradient-1)"></path>
                        </g>
                    </g>
                </g>
            </g>
        </g>
    </g>
</svg>